<?xml version="1.0" encoding="utf-8"?>
<svg version="1.1" id="Capa_1" xmlns="http://www.w3.org/2000/svg" xmlns:xlink="http://www.w3.org/1999/xlink" x="0px" y="0px"
	 viewBox="0 0 1042 1042" style="enable-background:new 0 0 1042 1042;" xml:space="preserve">
<style type="text/css">
	.st0{fill:#494ca2;}
</style>
<g>
	<path id="XMLID_1_" class="st0" d="M969.4,27.8H453.5H345.1c-0.1,0-0.1,0.1-0.1,0.1C431.1,172.4,480.7,341,480.7,521
		c0,180-49.6,348.7-135.7,493.1c0,0,0,0,0,0h108.4h517.5c23.8-0.8,42.9-20.1,43.3-44.1V71.9C1013.8,47.5,993.9,27.8,969.4,27.8z
		 M588.3,274.4H632c37.9,0,69.1,30.8,68.4,68.6c-0.7,36.5-30.6,65.9-67.2,65.9h-43.7c-37.9,0-69.1-30.8-68.4-68.6
		C521.8,303.8,551.6,274.4,588.3,274.4z M722.8,767.7H589.4c-37.9,0-69.1-30.8-68.4-68.6c0.7-36.5,30.6-65.9,67.2-65.9h133.4
		c37.9,0,69.1,30.8,68.4,68.6C789.3,738.3,759.5,767.7,722.8,767.7z"/>
	<g>
		<path class="st0" d="M153.6,27.8C153.6,27.8,153.6,27.8,153.6,27.8l-125.8,0v943.4c0-0.1,0-0.2,0-0.3v43.3h17.1c0,0,0.1,0,0.1,0
			h108.6C259.3,877.5,322.8,706.7,322.8,521C322.8,335.3,259.3,164.5,153.6,27.8z"/>
	</g>
</g>
</svg>
